solid MATLAB_1
facet normal -1 -0 0
  outer loop
   vertex 0.514505088 0.842104137 0.531922281
   vertex 0.514505088 -0.842103899 0.531922162
   vertex 0.514505088 -0.591103852 0.536334753
  endloop
 endfacet
facet normal -1 -0 0
  outer loop
   vertex 0.514505088 -0.591103852 0.536334753
   vertex 0.514505088 -0.842103899 0.531922162
   vertex 0.514505088 -0.788999856 0.638599098
  endloop
 endfacet
facet normal -1 0 -0
  outer loop
   vertex 0.514505088 0.842104137 0.64789933
   vertex 0.514505088 0.842104137 0.531922281
   vertex 0.514505088 0.789000094 0.638599217
  endloop
 endfacet
facet normal -1 0 0
  outer loop
   vertex 0.514505088 0.59110409 0.536334872
   vertex 0.514505088 0.59110409 0.638599217
   vertex 0.514505088 0.789000094 0.638599217
  endloop
 endfacet
facet normal -1 0 0
  outer loop
   vertex 0.514505088 -0.788999856 0.638599098
   vertex 0.514505088 -0.591103852 0.638599098
   vertex 0.514505088 -0.591103852 0.536334753
  endloop
 endfacet
facet normal -1 0 0
  outer loop
   vertex 0.514505088 -0.842103899 0.64789921
   vertex 0.514505088 -0.788999856 0.64789921
   vertex 0.514505088 -0.788999856 0.638599098
  endloop
 endfacet
facet normal -1 0 -0
  outer loop
   vertex 0.514505088 0.789000094 0.638599217
   vertex 0.514505088 0.842104137 0.531922281
   vertex 0.514505088 0.59110409 0.536334872
  endloop
 endfacet
facet normal -1 -0 0
  outer loop
   vertex 0.514505088 -0.788999856 0.638599098
   vertex 0.514505088 -0.842103899 0.531922162
   vertex 0.514505088 -0.842103899 0.64789921
  endloop
 endfacet
facet normal -1 0 0
  outer loop
   vertex 0.514505088 -0.591103852 0.536334753
   vertex 0.514505088 0.59110409 0.536334872
   vertex 0.514505088 0.842104137 0.531922281
  endloop
 endfacet
facet normal -1 0 0
  outer loop
   vertex 0.514505088 0.789000094 0.638599217
   vertex 0.514505088 0.789000094 0.64789933
   vertex 0.514505088 0.842104137 0.64789933
  endloop
 endfacet
facet normal 1 0 0
  outer loop
   vertex 0.624866664 -0.842103899 0.64789921
   vertex 0.624866664 -0.842103839 0.531922162
   vertex 0.624866664 0.842104197 0.531922281
  endloop
 endfacet
facet normal 1 0 0
  outer loop
   vertex 0.624866664 0.842104197 0.531922281
   vertex 0.624866664 0.842104137 0.64789933
   vertex 0.624866664 -0.842103899 0.64789921
  endloop
 endfacet
facet normal 0 0 1
  outer loop
   vertex 0.514505088 -0.842103899 0.64789921
   vertex 0.624866664 -0.842103899 0.64789921
   vertex 0.516890347 -0.788999856 0.64789921
  endloop
 endfacet
facet normal 3.61000438e-08 -7.3402127e-08 1
  outer loop
   vertex 0.624866664 -0.842103899 0.64789921
   vertex 0.624866664 0.842104137 0.64789933
   vertex 0.516890347 0.789000094 0.64789933
  endloop
 endfacet
facet normal -3.85297767e-08 -7.83424952e-08 1
  outer loop
   vertex 0.516890347 0.789000094 0.64789933
   vertex 0.516890347 -0.788999856 0.64789921
   vertex 0.624866664 -0.842103899 0.64789921
  endloop
 endfacet
facet normal 0 0 1
  outer loop
   vertex 0.514505088 0.842104137 0.64789933
   vertex 0.514505088 0.789000094 0.64789933
   vertex 0.516890347 0.789000094 0.64789933
  endloop
 endfacet
facet normal 0 -0 1
  outer loop
   vertex 0.516890347 0.789000094 0.64789933
   vertex 0.624866664 0.842104137 0.64789933
   vertex 0.514505088 0.842104137 0.64789933
  endloop
 endfacet
facet normal 0 0 1
  outer loop
   vertex 0.516890347 -0.788999856 0.64789921
   vertex 0.514505088 -0.788999856 0.64789921
   vertex 0.514505088 -0.842103899 0.64789921
  endloop
 endfacet
facet normal -3.96434154e-14 7.3402127e-08 -1
  outer loop
   vertex 0.624866664 -0.842103839 0.531922162
   vertex 0.514505088 -0.842103899 0.531922162
   vertex 0.514505088 0.842104137 0.531922281
  endloop
 endfacet
facet normal -3.96434154e-14 7.3402127e-08 -1
  outer loop
   vertex 0.514505088 0.842104137 0.531922281
   vertex 0.624866664 0.842104197 0.531922281
   vertex 0.624866664 -0.842103839 0.531922162
  endloop
 endfacet
facet normal 5.40085352e-07 -1 -5.13934879e-07
  outer loop
   vertex 0.514505088 -0.842103899 0.531922162
   vertex 0.624866664 -0.842103839 0.531922162
   vertex 0.624866664 -0.842103899 0.64789921
  endloop
 endfacet
facet normal -0 -1 0
  outer loop
   vertex 0.624866664 -0.842103899 0.64789921
   vertex 0.514505088 -0.842103899 0.64789921
   vertex 0.514505088 -0.842103899 0.531922162
  endloop
 endfacet
facet normal -0 1 5.13934879e-07
  outer loop
   vertex 0.514505088 0.842104137 0.64789933
   vertex 0.624866664 0.842104137 0.64789933
   vertex 0.624866664 0.842104197 0.531922281
  endloop
 endfacet
facet normal -5.40085352e-07 1 0
  outer loop
   vertex 0.624866664 0.842104197 0.531922281
   vertex 0.514505088 0.842104137 0.531922281
   vertex 0.514505088 0.842104137 0.64789933
  endloop
 endfacet
facet normal 0 0 -1
  outer loop
   vertex 0.561659157 -0.0654811636 0.657105029
   vertex 0.516890347 -0.0654811636 0.657105029
   vertex 0.516890347 0.0654814318 0.657105029
  endloop
 endfacet
facet normal 0 0 -1
  outer loop
   vertex 0.516890347 0.0654814318 0.657105029
   vertex 0.561659157 0.0654814318 0.657105029
   vertex 0.561659157 -0.0654811636 0.657105029
  endloop
 endfacet
facet normal 0 0 -1
  outer loop
   vertex 0.516890347 0.363235116 0.657105029
   vertex 0.561659157 0.363235146 0.657105029
   vertex 0.561659157 0.264344156 0.657105029
  endloop
 endfacet
facet normal -0 0 -1
  outer loop
   vertex 0.561659157 0.264344156 0.657105029
   vertex 0.516890347 0.264344126 0.657105029
   vertex 0.516890347 0.363235116 0.657105029
  endloop
 endfacet
facet normal 0 0 -1
  outer loop
   vertex 0.516890347 -0.264343888 0.657105029
   vertex 0.561659157 -0.264343858 0.657105029
   vertex 0.561659157 -0.363234848 0.657105029
  endloop
 endfacet
facet normal -0 0 -1
  outer loop
   vertex 0.561659157 -0.363234848 0.657105029
   vertex 0.516890347 -0.363234878 0.657105029
   vertex 0.516890347 -0.264343888 0.657105029
  endloop
 endfacet
facet normal 0 0 1
  outer loop
   vertex 0.501334906 -0.0690849647 0.656677783
   vertex 0.501334906 -0.260739893 0.656677783
   vertex 0.516890347 -0.260739893 0.656677783
  endloop
 endfacet
facet normal 0 -0 1
  outer loop
   vertex 0.516890347 -0.260739893 0.656677783
   vertex 0.516890347 -0.0690849647 0.656677783
   vertex 0.501334906 -0.0690849647 0.656677783
  endloop
 endfacet
facet normal 0 -0 1
  outer loop
   vertex 0.516890347 0.0690852329 0.656677783
   vertex 0.516890347 0.260740131 0.656677783
   vertex 0.501334906 0.260740131 0.656677783
  endloop
 endfacet
facet normal 0 0 1
  outer loop
   vertex 0.501334906 0.260740131 0.656677783
   vertex 0.501334906 0.0690852329 0.656677783
   vertex 0.516890347 0.0690852329 0.656677783
  endloop
 endfacet
endsolid MATLAB_1
