solid MATLAB_1
facet normal -0.905726194 -0.423863262 -1.40180177e-07
  outer loop
   vertex -0.769470155 0.927417934 1.4475069
   vertex -0.769470155 0.927417994 1.2672801
   vertex -0.71231699 0.805290997 1.31825042
  endloop
 endfacet
facet normal -0.905719578 -0.423877448 -4.1516847e-05
  outer loop
   vertex -0.769470155 0.927417994 1.2672801
   vertex -0.712309659 0.805275977 1.31248462
   vertex -0.71231699 0.805290997 1.31825042
  endloop
 endfacet
facet normal -0.905722737 -0.423870683 -1.92445477e-05
  outer loop
   vertex -0.769470155 0.927417994 1.2672801
   vertex -0.712288976 0.805231988 1.30679119
   vertex -0.712309659 0.805275977 1.31248462
  endloop
 endfacet
facet normal -0.905723631 -0.423868716 -1.19206397e-05
  outer loop
   vertex -0.769470155 0.927417994 1.2672801
   vertex -0.712254703 0.805158973 1.30121207
   vertex -0.712288976 0.805231988 1.30679119
  endloop
 endfacet
facet normal -0.905735314 -0.423843771 9.7644057e-05
  outer loop
   vertex -0.769470155 0.927417994 1.2672801
   vertex -0.712208033 0.805058002 1.2958194
   vertex -0.712254703 0.805158973 1.30121207
  endloop
 endfacet
facet normal -0.905722976 -0.423870087 -3.98052325e-05
  outer loop
   vertex -0.769470155 0.927417994 1.2672801
   vertex -0.712147892 0.804929972 1.29067564
   vertex -0.712208033 0.805058002 1.2958194
  endloop
 endfacet
facet normal -0.905718863 -0.423878878 -9.60011312e-05
  outer loop
   vertex -0.769470155 0.927417994 1.2672801
   vertex -0.712075353 0.804776013 1.28582239
   vertex -0.712147892 0.804929972 1.29067564
  endloop
 endfacet
facet normal -0.905723214 -0.42386961 -2.12630493e-05
  outer loop
   vertex -0.769470155 0.927417994 1.2672801
   vertex -0.711992383 0.804598987 1.28132164
   vertex -0.712075353 0.804776013 1.28582239
  endloop
 endfacet
facet normal -0.905726552 -0.423862517 5.454442e-05
  outer loop
   vertex -0.769470155 0.927417994 1.2672801
   vertex -0.711899042 0.804399014 1.27721488
   vertex -0.711992383 0.804598987 1.28132164
  endloop
 endfacet
facet normal -0.906287968 -0.422660649 0.000346243789
  outer loop
   vertex -0.711567163 0.803689003 1.26776755
   vertex -0.711740375 0.804059982 1.2672801
   vertex -0.711597204 0.803753018 1.2672801
  endloop
 endfacet
facet normal -0.905727029 -0.423861414 7.08797379e-05
  outer loop
   vertex -0.769470155 0.927417994 1.2672801
   vertex -0.711796403 0.804179013 1.27356458
   vertex -0.711899042 0.804399014 1.27721488
  endloop
 endfacet
facet normal -0.904367328 -0.426754832 -0.000309801078
  outer loop
   vertex -0.711597204 0.803753018 1.2672801
   vertex -0.711544394 0.803641021 1.2672801
   vertex -0.711567163 0.803689003 1.26776755
  endloop
 endfacet
facet normal -0.905725062 -0.423865676 -3.06995717e-05
  outer loop
   vertex -0.769470155 0.927417994 1.2672801
   vertex -0.711685359 0.803942025 1.27038085
   vertex -0.711796403 0.804179013 1.27356458
  endloop
 endfacet
facet normal -0.905724823 -0.423866183 -5.53749232e-05
  outer loop
   vertex -0.711685359 0.803942025 1.27038085
   vertex -0.769470155 0.927417994 1.2672801
   vertex -0.711740375 0.804059982 1.2672801
  endloop
 endfacet
facet normal -0.906104803 -0.423053324 -1.77118727e-05
  outer loop
   vertex -0.711567163 0.803689003 1.26776755
   vertex -0.711685359 0.803942025 1.27038085
   vertex -0.711740375 0.804059982 1.2672801
  endloop
 endfacet
facet normal -0.905726135 -0.423863381 0
  outer loop
   vertex -0.71231699 0.805290997 1.31825042
   vertex -0.71231699 0.805290997 1.4475069
   vertex -0.769470155 0.927417934 1.4475069
  endloop
 endfacet
facet normal -0.905726314 0.423863053 0
  outer loop
   vertex -0.769470036 -0.927418053 1.44750655
   vertex -0.712316811 -0.805290997 1.44750655
   vertex -0.712316811 -0.805290997 1.31825018
  endloop
 endfacet
facet normal -0.905726254 0.423863173 1.40180148e-07
  outer loop
   vertex -0.712316811 -0.805290997 1.31825018
   vertex -0.769470036 -0.927417994 1.26727986
   vertex -0.769470036 -0.927418053 1.44750655
  endloop
 endfacet
facet normal -0.905719578 0.423877448 -4.1516847e-05
  outer loop
   vertex -0.712316811 -0.805290997 1.31825018
   vertex -0.712309539 -0.805275977 1.31248438
   vertex -0.769470036 -0.927417994 1.26727986
  endloop
 endfacet
facet normal -0.905722737 0.423870683 -1.92445477e-05
  outer loop
   vertex -0.712309539 -0.805275977 1.31248438
   vertex -0.712288857 -0.805231988 1.30679095
   vertex -0.769470036 -0.927417994 1.26727986
  endloop
 endfacet
facet normal -0.905723631 0.423868716 -1.19206397e-05
  outer loop
   vertex -0.712288857 -0.805231988 1.30679095
   vertex -0.712254584 -0.805158973 1.30121183
   vertex -0.769470036 -0.927417994 1.26727986
  endloop
 endfacet
facet normal -0.905735314 0.423843771 9.7644057e-05
  outer loop
   vertex -0.712254584 -0.805158973 1.30121183
   vertex -0.712207913 -0.805058002 1.29581916
   vertex -0.769470036 -0.927417994 1.26727986
  endloop
 endfacet
facet normal -0.905722976 0.423870087 -3.98052325e-05
  outer loop
   vertex -0.712207913 -0.805058002 1.29581916
   vertex -0.712147772 -0.804929972 1.2906754
   vertex -0.769470036 -0.927417994 1.26727986
  endloop
 endfacet
facet normal -0.905718863 0.423878878 -9.60011312e-05
  outer loop
   vertex -0.712147772 -0.804929972 1.2906754
   vertex -0.712075233 -0.804776013 1.28582215
   vertex -0.769470036 -0.927417994 1.26727986
  endloop
 endfacet
facet normal -0.904367328 0.426754832 -0.000309801078
  outer loop
   vertex -0.711567044 -0.803689003 1.26776731
   vertex -0.711544275 -0.803641021 1.26727986
   vertex -0.711597085 -0.803753018 1.26727986
  endloop
 endfacet
facet normal -0.905723214 0.42386961 -2.12630493e-05
  outer loop
   vertex -0.712075233 -0.804776013 1.28582215
   vertex -0.711992264 -0.804598987 1.28132129
   vertex -0.769470036 -0.927417994 1.26727986
  endloop
 endfacet
facet normal -0.906104803 0.423053324 -1.77118727e-05
  outer loop
   vertex -0.711740255 -0.804059982 1.26727986
   vertex -0.71168524 -0.803942025 1.27038062
   vertex -0.711567044 -0.803689003 1.26776731
  endloop
 endfacet
facet normal -0.905726552 0.423862517 5.454442e-05
  outer loop
   vertex -0.711992264 -0.804598987 1.28132129
   vertex -0.711898923 -0.804399014 1.27721465
   vertex -0.769470036 -0.927417994 1.26727986
  endloop
 endfacet
facet normal -0.906287968 0.422660649 0.000346243789
  outer loop
   vertex -0.711597085 -0.803753018 1.26727986
   vertex -0.711740255 -0.804059982 1.26727986
   vertex -0.711567044 -0.803689003 1.26776731
  endloop
 endfacet
facet normal -0.905727029 0.423861414 7.08797379e-05
  outer loop
   vertex -0.711898923 -0.804399014 1.27721465
   vertex -0.711796284 -0.804179013 1.27356434
   vertex -0.769470036 -0.927417994 1.26727986
  endloop
 endfacet
facet normal -0.905725062 0.423865676 -3.06995717e-05
  outer loop
   vertex -0.711796284 -0.804179013 1.27356434
   vertex -0.71168524 -0.803942025 1.27038062
   vertex -0.769470036 -0.927417994 1.26727986
  endloop
 endfacet
facet normal -0.905724823 0.423866183 -5.53749232e-05
  outer loop
   vertex -0.711740255 -0.804059982 1.26727986
   vertex -0.769470036 -0.927417994 1.26727986
   vertex -0.71168524 -0.803942025 1.27038062
  endloop
 endfacet
endsolid MATLAB_1
