solid MATLAB_1
facet normal 0.891438723 -5.23189046e-05 0.453141302
  outer loop
   vertex -0.689006329 -0.661867023 1.36047852
   vertex -0.694457054 -0.0330033228 1.37127411
   vertex -0.694831371 -0.0338700227 1.37201035
  endloop
 endfacet
facet normal 0.89348346 3.48473077e-05 0.449096084
  outer loop
   vertex -0.689006329 -0.661867023 1.36047852
   vertex -0.69405055 -0.0322396234 1.37046516
   vertex -0.694457054 -0.0330033228 1.37127411
  endloop
 endfacet
facet normal 0.891952693 -2.55183568e-05 0.452128768
  outer loop
   vertex -0.689006329 -0.661867023 1.36047852
   vertex -0.693593204 -0.0315458216 1.36956298
   vertex -0.69405055 -0.0322396234 1.37046516
  endloop
 endfacet
facet normal 0.892347097 -1.2846026e-05 0.451349795
  outer loop
   vertex -0.689006329 -0.661867023 1.36047852
   vertex -0.695753336 -0.0372169241 1.37383556
   vertex -0.696026087 -0.0389108211 1.37437487
  endloop
 endfacet
facet normal 0.892266214 -1.46811644e-05 0.451509655
  outer loop
   vertex -0.694831371 -0.0338700227 1.37201035
   vertex -0.695182979 -0.0348886214 1.3727051
   vertex -0.689006329 -0.661867023 1.36047852
  endloop
 endfacet
facet normal 0.899498641 0.0188748725 0.436515629
  outer loop
   vertex -0.693719625 -0.659204006 1.36981189
   vertex -0.694932938 -0.656785011 1.3722074
   vertex -0.694577277 -0.657664001 1.37151253
  endloop
 endfacet
facet normal 0.892580628 8.99886174e-08 0.450887859
  outer loop
   vertex -0.696026087 -0.0389108211 1.37437487
   vertex -0.696026027 -0.652014971 1.37437487
   vertex -0.689006329 -0.661867023 1.36047852
  endloop
 endfacet
facet normal 0.892227292 -1.57052291e-05 0.451586545
  outer loop
   vertex -0.689006329 -0.661867023 1.36047852
   vertex -0.693084002 -0.0309283212 1.3685571
   vertex -0.693593204 -0.0315458216 1.36956298
  endloop
 endfacet
facet normal 0.896237195 -5.7155572e-05 0.443575084
  outer loop
   vertex -0.660125911 -0.0370020121 1.30331707
   vertex -0.662531793 -0.660322011 1.30809784
   vertex -0.662013292 -0.659440994 1.30705035
  endloop
 endfacet
facet normal 0.893637478 0.0026652338 0.448781639
  outer loop
   vertex -0.695812345 -0.653388977 1.37394965
   vertex -0.693288267 -0.659766972 1.36896145
   vertex -0.69273448 -0.660345972 1.36786222
  endloop
 endfacet
facet normal 0.891083479 -0.00249540177 0.453832537
  outer loop
   vertex -0.693719625 -0.659204006 1.36981189
   vertex -0.695252419 -0.655808985 1.37284005
   vertex -0.694932938 -0.656785011 1.3722074
  endloop
 endfacet
facet normal 0.891714811 -4.63593315e-05 0.452597708
  outer loop
   vertex -0.689006329 -0.661867023 1.36047852
   vertex -0.695479572 -0.0359601229 1.37329638
   vertex -0.695753336 -0.0372169241 1.37383556
  endloop
 endfacet
facet normal 0.892178178 -1.72657292e-05 0.451683611
  outer loop
   vertex -0.689006329 -0.661867023 1.36047852
   vertex -0.692496002 -0.0303708203 1.36739564
   vertex -0.693084002 -0.0309283212 1.3685571
  endloop
 endfacet
facet normal 0.888830423 5.32372542e-05 0.458236277
  outer loop
   vertex -0.662013292 -0.659440994 1.30705035
   vertex -0.661494851 -0.658383012 1.30604446
   vertex -0.660125911 -0.0370020121 1.30331707
  endloop
 endfacet
facet normal 0.893294573 0.00191323366 0.449467659
  outer loop
   vertex -0.69273448 -0.660345972 1.36786222
   vertex -0.692075908 -0.660872996 1.36655557
   vertex -0.695812345 -0.653388977 1.37394965
  endloop
 endfacet
facet normal 0.890927076 -0.00283797993 0.454137474
  outer loop
   vertex -0.693719625 -0.659204006 1.36981189
   vertex -0.695544839 -0.654694021 1.37342072
   vertex -0.695252419 -0.655808985 1.37284005
  endloop
 endfacet
facet normal 0.893785357 5.90724558e-05 0.448495001
  outer loop
   vertex -0.695182979 -0.0348886214 1.3727051
   vertex -0.695479572 -0.0359601229 1.37329638
   vertex -0.689006329 -0.661867023 1.36047852
  endloop
 endfacet
facet normal 0.896529675 0 0.442983717
  outer loop
   vertex -0.660167336 -0.654145002 1.30342066
   vertex -0.659731805 -0.651901007 1.30253923
   vertex -0.659731805 -0.039024312 1.30253923
  endloop
 endfacet
facet normal 0.890502095 5.24458628e-05 0.454979092
  outer loop
   vertex -0.660125911 -0.0370020121 1.30331707
   vertex -0.66301924 -0.660978973 1.30905187
   vertex -0.662531793 -0.660322011 1.30809784
  endloop
 endfacet
facet normal 0.891590238 -0.00226688362 0.452837378
  outer loop
   vertex -0.692075908 -0.660872996 1.36655557
   vertex -0.691271186 -0.661328971 1.3649689
   vertex -0.695812345 -0.653388977 1.37394965
  endloop
 endfacet
facet normal 0.8923527 -2.15250693e-05 0.451338738
  outer loop
   vertex -0.693719625 -0.659204006 1.36981189
   vertex -0.695812345 -0.653388977 1.37394965
   vertex -0.695544839 -0.654694021 1.37342072
  endloop
 endfacet
facet normal 0.893077314 7.20479238e-06 0.44990319
  outer loop
   vertex -0.689006329 -0.661867023 1.36047852
   vertex -0.69180119 -0.0298767202 1.36601639
   vertex -0.692496002 -0.0303708203 1.36739564
  endloop
 endfacet
facet normal 0.88786757 1.76534468e-05 0.460099101
  outer loop
   vertex -0.660125911 -0.0370020121 1.30331707
   vertex -0.660613358 -0.65585202 1.30428147
   vertex -0.660167336 -0.654145002 1.30342066
  endloop
 endfacet
facet normal 0.892332256 1.54251647e-05 0.45137918
  outer loop
   vertex -0.661494851 -0.658383012 1.30604446
   vertex -0.661048889 -0.657240987 1.30516291
   vertex -0.660125911 -0.0370020121 1.30331707
  endloop
 endfacet
facet normal 0.891475022 3.6614565e-05 0.453069896
  outer loop
   vertex -0.660125911 -0.0370020121 1.30331707
   vertex -0.664253414 -0.662137985 1.31148887
   vertex -0.663610399 -0.661611974 1.3102237
  endloop
 endfacet
facet normal 0.89285481 0.00127790577 0.450342834
  outer loop
   vertex -0.691271186 -0.661328971 1.3649689
   vertex -0.69025594 -0.661686003 1.362957
   vertex -0.695812345 -0.653388977 1.37394965
  endloop
 endfacet
facet normal 0.877334476 -0.0395539738 0.47824648
  outer loop
   vertex -0.694577277 -0.657664001 1.37151253
   vertex -0.694178045 -0.658463001 1.37071407
   vertex -0.693719625 -0.659204006 1.36981189
  endloop
 endfacet
facet normal 0.893305063 1.21753728e-05 0.44945085
  outer loop
   vertex -0.689006329 -0.661867023 1.36047852
   vertex -0.690966368 -0.0294662211 1.36435699
   vertex -0.69180119 -0.0298767202 1.36601639
  endloop
 endfacet
facet normal 0.89135617 4.03132362e-05 0.453303665
  outer loop
   vertex -0.667955577 -0.662971973 1.31882071
   vertex -0.662894905 -0.0300993137 1.30881333
   vertex -0.663506687 -0.0294135138 1.31001627
  endloop
 endfacet
facet normal 0.896539569 -1.5880596e-05 0.4429636
  outer loop
   vertex -0.661048889 -0.657240987 1.30516291
   vertex -0.660613358 -0.65585202 1.30428147
   vertex -0.660125911 -0.0370020121 1.30331707
  endloop
 endfacet
facet normal 0.89182061 2.54347106e-05 0.45238921
  outer loop
   vertex -0.660125911 -0.0370020121 1.30331707
   vertex -0.664979279 -0.662559986 1.31291997
   vertex -0.664253414 -0.662137985 1.31148887
  endloop
 endfacet
facet normal 0.891331375 -0.00181931956 0.453348696
  outer loop
   vertex -0.693719625 -0.659204006 1.36981189
   vertex -0.693288267 -0.659766972 1.36896145
   vertex -0.695812345 -0.653388977 1.37394965
  endloop
 endfacet
facet normal 0.891688883 -1.24462977e-05 0.452648789
  outer loop
   vertex -0.689006329 -0.661867023 1.36047852
   vertex -0.689934492 -0.0291693211 1.36232436
   vertex -0.690966368 -0.0294662211 1.36435699
  endloop
 endfacet
facet normal 0.896282315 -0.00015435394 0.443483949
  outer loop
   vertex -0.667955577 -0.662971973 1.31882071
   vertex -0.662417829 -0.0307920128 1.30784893
   vertex -0.662894905 -0.0300993137 1.30881333
  endloop
 endfacet
facet normal 0.890519381 9.57172088e-05 0.454945326
  outer loop
   vertex -0.667955577 -0.662971973 1.31882071
   vertex -0.661432624 -0.0326899141 1.30592
   vertex -0.66190958 -0.0316741131 1.30685341
  endloop
 endfacet
facet normal 0.892820299 -2.68522825e-07 0.450413048
  outer loop
   vertex -0.663610399 -0.661611974 1.3102237
   vertex -0.66301924 -0.660978973 1.30905187
   vertex -0.660125911 -0.0370020121 1.30331707
  endloop
 endfacet
facet normal 0.892324388 -0.000896214799 0.451393872
  outer loop
   vertex -0.696026027 -0.652014971 1.37437487
   vertex -0.695812345 -0.653388977 1.37394965
   vertex -0.689006329 -0.661867023 1.36047852
  endloop
 endfacet
facet normal 0.890689194 8.77871425e-05 0.454612792
  outer loop
   vertex -0.66190958 -0.0316741131 1.30685341
   vertex -0.662417829 -0.0307920128 1.30784893
   vertex -0.667955577 -0.662971973 1.31882071
  endloop
 endfacet
facet normal 0.892180324 1.17478139e-05 0.451679409
  outer loop
   vertex -0.660125911 -0.0370020121 1.30331707
   vertex -0.665808856 -0.662864029 1.31455851
   vertex -0.664979279 -0.662559986 1.31291997
  endloop
 endfacet
facet normal 0.893419683 8.72685959e-08 0.449222982
  outer loop
   vertex -0.689006329 -0.661867023 1.36047852
   vertex -0.689006388 -0.0290591214 1.36047852
   vertex -0.689934492 -0.0291693211 1.36232436
  endloop
 endfacet
facet normal 0.891387701 3.92286674e-05 0.453241587
  outer loop
   vertex -0.663506687 -0.0294135138 1.31001627
   vertex -0.6641289 -0.0288799126 1.31123996
   vertex -0.667955577 -0.662971973 1.31882071
  endloop
 endfacet
facet normal 0.894387126 -0.000101151651 0.447293669
  outer loop
   vertex -0.667955577 -0.662971973 1.31882071
   vertex -0.660551071 -0.0352885164 1.30415702
   vertex -0.660986602 -0.033880014 1.3050282
  endloop
 endfacet
facet normal 0.892485559 -1.86192085e-06 0.451076001
  outer loop
   vertex -0.660125911 -0.0370020121 1.30331707
   vertex -0.66678375 -0.663020015 1.31648743
   vertex -0.665808856 -0.662864029 1.31455851
  endloop
 endfacet
facet normal 0.892973483 0.00167089677 0.450106204
  outer loop
   vertex -0.69025594 -0.661686003 1.362957
   vertex -0.689006329 -0.661867023 1.36047852
   vertex -0.695812345 -0.653388977 1.37394965
  endloop
 endfacet
facet normal 0.89248544 -1.67665053e-06 0.451076239
  outer loop
   vertex -0.667955577 -0.662971973 1.31882071
   vertex -0.665642917 -0.0281065144 1.31424737
   vertex -0.666617811 -0.0279185157 1.3161763
  endloop
 endfacet
facet normal 0.894436598 -5.14614621e-05 0.447194844
  outer loop
   vertex -0.6641289 -0.0288799126 1.31123996
   vertex -0.664823651 -0.028438814 1.31262958
   vertex -0.667955577 -0.662971973 1.31882071
  endloop
 endfacet
facet normal 0.892230153 2.44503717e-05 0.451580912
  outer loop
   vertex -0.667955577 -0.662971973 1.31882071
   vertex -0.660125911 -0.0370020121 1.30331707
   vertex -0.660551071 -0.0352885164 1.30415702
  endloop
 endfacet
facet normal 0.893629849 -6.18141203e-05 0.448804766
  outer loop
   vertex -0.660125911 -0.0370020121 1.30331707
   vertex -0.667955577 -0.662971973 1.31882071
   vertex -0.66678375 -0.663020015 1.31648743
  endloop
 endfacet
facet normal 0.892517388 -0 0.451012999
  outer loop
   vertex -0.667955577 -0.662971973 1.31882071
   vertex -0.667955577 -0.0279534142 1.31882071
   vertex -0.689006388 -0.0290591214 1.36047852
  endloop
 endfacet
facet normal 0.892125189 4.76453988e-06 0.451788247
  outer loop
   vertex -0.664823651 -0.028438814 1.31262958
   vertex -0.665642917 -0.0281065144 1.31424737
   vertex -0.667955577 -0.662971973 1.31882071
  endloop
 endfacet
facet normal 0.892049491 1.60027939e-05 0.451937705
  outer loop
   vertex -0.659731805 -0.039024312 1.30253923
   vertex -0.660125911 -0.0370020121 1.30331707
   vertex -0.660167336 -0.654145002 1.30342066
  endloop
 endfacet
facet normal 0.892323315 0 0.451396883
  outer loop
   vertex -0.666617811 -0.0279185157 1.3161763
   vertex -0.667955577 -0.0279534142 1.31882071
   vertex -0.667955577 -0.662971973 1.31882071
  endloop
 endfacet
facet normal 0.892517924 8.71805099e-08 0.451011956
  outer loop
   vertex -0.689006329 -0.661867023 1.36047852
   vertex -0.667955577 -0.662971973 1.31882071
   vertex -0.689006388 -0.0290591214 1.36047852
  endloop
 endfacet
facet normal 0.894325376 -9.77605305e-05 0.44741711
  outer loop
   vertex -0.660986602 -0.033880014 1.3050282
   vertex -0.661432624 -0.0326899141 1.30592
   vertex -0.667955577 -0.662971973 1.31882071
  endloop
 endfacet
facet normal 0.892266333 1.48522076e-05 0.451509446
  outer loop
   vertex -0.689006448 0.661867023 1.36047852
   vertex -0.695182979 0.0348885767 1.3727051
   vertex -0.694831371 0.033869978 1.37201035
  endloop
 endfacet
facet normal 0.891438782 5.24906754e-05 0.453141153
  outer loop
   vertex -0.694831371 0.033869978 1.37201035
   vertex -0.694457054 0.0330032781 1.37127411
   vertex -0.689006448 0.661867023 1.36047852
  endloop
 endfacet
facet normal 0.89348352 -3.46744637e-05 0.449095964
  outer loop
   vertex -0.694457054 0.0330032781 1.37127411
   vertex -0.69405055 0.0322395787 1.37046516
   vertex -0.689006448 0.661867023 1.36047852
  endloop
 endfacet
facet normal 0.893785477 -5.89022457e-05 0.448494732
  outer loop
   vertex -0.689006448 0.661867023 1.36047852
   vertex -0.695479572 0.0359600782 1.37329638
   vertex -0.695182979 0.0348885767 1.3727051
  endloop
 endfacet
facet normal 0.892580569 8.99886032e-08 0.450887948
  outer loop
   vertex -0.689006448 0.661867023 1.36047852
   vertex -0.696026146 0.652014971 1.37437487
   vertex -0.696026087 0.0389107764 1.37437487
  endloop
 endfacet
facet normal 0.891952753 2.56913772e-05 0.452128649
  outer loop
   vertex -0.69405055 0.0322395787 1.37046516
   vertex -0.693593204 0.0315457769 1.36956298
   vertex -0.689006448 0.661867023 1.36047852
  endloop
 endfacet
facet normal 0.892324388 0.000896214799 0.451393872
  outer loop
   vertex -0.689006448 0.661867023 1.36047852
   vertex -0.695812464 0.653388977 1.37394965
   vertex -0.696026146 0.652014971 1.37437487
  endloop
 endfacet
facet normal 0.877334476 0.0395539738 0.47824648
  outer loop
   vertex -0.693719745 0.659204006 1.36981189
   vertex -0.694178164 0.658463001 1.37071407
   vertex -0.694577396 0.657664001 1.37151253
  endloop
 endfacet
facet normal 0.892227352 1.58786879e-05 0.451586455
  outer loop
   vertex -0.693593204 0.0315457769 1.36956298
   vertex -0.693084002 0.0309282802 1.3685571
   vertex -0.689006448 0.661867023 1.36047852
  endloop
 endfacet
facet normal 0.892347336 1.30115168e-05 0.451349407
  outer loop
   vertex -0.696026087 0.0389107764 1.37437487
   vertex -0.695753336 0.0372168794 1.37383556
   vertex -0.689006448 0.661867023 1.36047852
  endloop
 endfacet
facet normal 0.899498641 -0.0188748725 0.436515629
  outer loop
   vertex -0.694577396 0.657664001 1.37151253
   vertex -0.694933057 0.656785011 1.3722074
   vertex -0.693719745 0.659204006 1.36981189
  endloop
 endfacet
facet normal 0.893294573 -0.00191323366 0.449467659
  outer loop
   vertex -0.695812464 0.653388977 1.37394965
   vertex -0.692076027 0.660872996 1.36655557
   vertex -0.692734599 0.660345972 1.36786222
  endloop
 endfacet
facet normal 0.888830423 -5.32372505e-05 0.458236277
  outer loop
   vertex -0.660125911 0.0370019898 1.30331707
   vertex -0.661494851 0.658383012 1.30604446
   vertex -0.662013292 0.659440994 1.30705035
  endloop
 endfacet
facet normal 0.89171499 4.65274388e-05 0.45259738
  outer loop
   vertex -0.695753336 0.0372168794 1.37383556
   vertex -0.695479572 0.0359600782 1.37329638
   vertex -0.689006448 0.661867023 1.36047852
  endloop
 endfacet
facet normal 0.891083479 0.00249540177 0.453832537
  outer loop
   vertex -0.694933057 0.656785011 1.3722074
   vertex -0.695252538 0.655808985 1.37284005
   vertex -0.693719745 0.659204006 1.36981189
  endloop
 endfacet
facet normal 0.891590238 0.00226688362 0.452837378
  outer loop
   vertex -0.695812464 0.653388977 1.37394965
   vertex -0.691271305 0.661328971 1.3649689
   vertex -0.692076027 0.660872996 1.36655557
  endloop
 endfacet
facet normal 0.892332256 -1.54251629e-05 0.45137918
  outer loop
   vertex -0.660125911 0.0370019898 1.30331707
   vertex -0.661048889 0.657240987 1.30516291
   vertex -0.661494851 0.658383012 1.30604446
  endloop
 endfacet
facet normal 0.892178237 1.74394718e-05 0.451683551
  outer loop
   vertex -0.693084002 0.0309282802 1.3685571
   vertex -0.692496002 0.0303707793 1.36739564
   vertex -0.689006448 0.661867023 1.36047852
  endloop
 endfacet
facet normal 0.890927076 0.00283797993 0.454137474
  outer loop
   vertex -0.695252538 0.655808985 1.37284005
   vertex -0.695544958 0.654694021 1.37342072
   vertex -0.693719745 0.659204006 1.36981189
  endloop
 endfacet
facet normal 0.89285481 -0.00127790577 0.450342834
  outer loop
   vertex -0.695812464 0.653388977 1.37394965
   vertex -0.690256059 0.661686003 1.362957
   vertex -0.691271305 0.661328971 1.3649689
  endloop
 endfacet
facet normal 0.896237195 5.7155572e-05 0.443575084
  outer loop
   vertex -0.662013292 0.659440994 1.30705035
   vertex -0.662531793 0.660322011 1.30809784
   vertex -0.660125911 0.0370019898 1.30331707
  endloop
 endfacet
facet normal 0.892049491 -1.60027939e-05 0.451937705
  outer loop
   vertex -0.660167336 0.654145002 1.30342066
   vertex -0.660125911 0.0370019898 1.30331707
   vertex -0.659731805 0.0390242897 1.30253923
  endloop
 endfacet
facet normal 0.891387701 -3.92286674e-05 0.453241587
  outer loop
   vertex -0.667955577 0.662971973 1.31882071
   vertex -0.6641289 0.0288798865 1.31123996
   vertex -0.663506687 0.0294134878 1.31001627
  endloop
 endfacet
facet normal 0.893077374 -7.03064279e-06 0.449903131
  outer loop
   vertex -0.692496002 0.0303707793 1.36739564
   vertex -0.69180119 0.0298766792 1.36601639
   vertex -0.689006448 0.661867023 1.36047852
  endloop
 endfacet
facet normal 0.891331375 0.00181931956 0.453348696
  outer loop
   vertex -0.695812464 0.653388977 1.37394965
   vertex -0.693288386 0.659766972 1.36896145
   vertex -0.693719745 0.659204006 1.36981189
  endloop
 endfacet
facet normal 0.892973483 -0.00167089677 0.450106204
  outer loop
   vertex -0.695812464 0.653388977 1.37394965
   vertex -0.689006448 0.661867023 1.36047852
   vertex -0.690256059 0.661686003 1.362957
  endloop
 endfacet
facet normal 0.892820299 2.68522797e-07 0.450413048
  outer loop
   vertex -0.660125911 0.0370019898 1.30331707
   vertex -0.66301924 0.660978973 1.30905187
   vertex -0.663610399 0.661611974 1.3102237
  endloop
 endfacet
facet normal 0.896539569 1.5880596e-05 0.4429636
  outer loop
   vertex -0.660125911 0.0370019898 1.30331707
   vertex -0.660613358 0.65585202 1.30428147
   vertex -0.661048889 0.657240987 1.30516291
  endloop
 endfacet
facet normal 0.896529675 -0 0.442983717
  outer loop
   vertex -0.659731805 0.0390242897 1.30253923
   vertex -0.659731805 0.651901007 1.30253923
   vertex -0.660167336 0.654145002 1.30342066
  endloop
 endfacet
facet normal 0.890689194 -8.77871425e-05 0.454612792
  outer loop
   vertex -0.667955577 0.662971973 1.31882071
   vertex -0.662417829 0.0307919867 1.30784893
   vertex -0.66190958 0.0316740833 1.30685341
  endloop
 endfacet
facet normal 0.89135617 -4.03132362e-05 0.453303665
  outer loop
   vertex -0.663506687 0.0294134878 1.31001627
   vertex -0.662894905 0.0300992876 1.30881333
   vertex -0.667955577 0.662971973 1.31882071
  endloop
 endfacet
facet normal 0.893305063 -1.20010091e-05 0.449450821
  outer loop
   vertex -0.69180119 0.0298766792 1.36601639
   vertex -0.690966368 0.0294661801 1.36435699
   vertex -0.689006448 0.661867023 1.36047852
  endloop
 endfacet
facet normal 0.893637478 -0.0026652338 0.448781639
  outer loop
   vertex -0.692734599 0.660345972 1.36786222
   vertex -0.693288386 0.659766972 1.36896145
   vertex -0.695812464 0.653388977 1.37394965
  endloop
 endfacet
facet normal 0.891475022 -3.6614565e-05 0.453069896
  outer loop
   vertex -0.663610399 0.661611974 1.3102237
   vertex -0.664253414 0.662137985 1.31148887
   vertex -0.660125911 0.0370019898 1.30331707
  endloop
 endfacet
facet normal 0.88786757 -1.76534468e-05 0.460099101
  outer loop
   vertex -0.660167336 0.654145002 1.30342066
   vertex -0.660613358 0.65585202 1.30428147
   vertex -0.660125911 0.0370019898 1.30331707
  endloop
 endfacet
facet normal 0.896282315 0.000154353926 0.443483949
  outer loop
   vertex -0.662894905 0.0300992876 1.30881333
   vertex -0.662417829 0.0307919867 1.30784893
   vertex -0.667955577 0.662971973 1.31882071
  endloop
 endfacet
facet normal 0.8923527 2.15250693e-05 0.451338738
  outer loop
   vertex -0.695544958 0.654694021 1.37342072
   vertex -0.695812464 0.653388977 1.37394965
   vertex -0.693719745 0.659204006 1.36981189
  endloop
 endfacet
facet normal 0.890502095 -5.24458592e-05 0.454979092
  outer loop
   vertex -0.662531793 0.660322011 1.30809784
   vertex -0.66301924 0.660978973 1.30905187
   vertex -0.660125911 0.0370019898 1.30331707
  endloop
 endfacet
facet normal 0.894436598 5.14614585e-05 0.447194844
  outer loop
   vertex -0.667955577 0.662971973 1.31882071
   vertex -0.664823651 0.0284387842 1.31262958
   vertex -0.6641289 0.0288798865 1.31123996
  endloop
 endfacet
facet normal 0.891688883 1.26204523e-05 0.452648759
  outer loop
   vertex -0.690966368 0.0294661801 1.36435699
   vertex -0.689934492 0.0291692801 1.36232436
   vertex -0.689006448 0.661867023 1.36047852
  endloop
 endfacet
facet normal 0.89182061 -2.54347087e-05 0.45238921
  outer loop
   vertex -0.664253414 0.662137985 1.31148887
   vertex -0.664979279 0.662559986 1.31291997
   vertex -0.660125911 0.0370019898 1.30331707
  endloop
 endfacet
facet normal 0.892125189 -4.76453988e-06 0.451788247
  outer loop
   vertex -0.667955577 0.662971973 1.31882071
   vertex -0.665642917 0.0281064846 1.31424737
   vertex -0.664823651 0.0284387842 1.31262958
  endloop
 endfacet
facet normal 0.892323315 0 0.451396883
  outer loop
   vertex -0.667955577 0.662971973 1.31882071
   vertex -0.667955577 0.0279533844 1.31882071
   vertex -0.666617811 0.0279184859 1.3161763
  endloop
 endfacet
facet normal 0.892516851 8.71804033e-08 0.451014072
  outer loop
   vertex -0.689006388 0.0290590804 1.36047852
   vertex -0.667955577 0.662971973 1.31882071
   vertex -0.689006448 0.661867023 1.36047852
  endloop
 endfacet
facet normal 0.892180324 -1.1747813e-05 0.451679409
  outer loop
   vertex -0.664979279 0.662559986 1.31291997
   vertex -0.665808856 0.662864029 1.31455851
   vertex -0.660125911 0.0370019898 1.30331707
  endloop
 endfacet
facet normal 0.894325376 9.77605305e-05 0.44741711
  outer loop
   vertex -0.667955577 0.662971973 1.31882071
   vertex -0.661432624 0.0326898843 1.30592
   vertex -0.660986602 0.0338799842 1.3050282
  endloop
 endfacet
facet normal 0.89248544 1.67665041e-06 0.451076239
  outer loop
   vertex -0.666617811 0.0279184859 1.3161763
   vertex -0.665642917 0.0281064846 1.31424737
   vertex -0.667955577 0.662971973 1.31882071
  endloop
 endfacet
facet normal 0.893419683 8.72685888e-08 0.449222982
  outer loop
   vertex -0.689934492 0.0291692801 1.36232436
   vertex -0.689006388 0.0290590804 1.36047852
   vertex -0.689006448 0.661867023 1.36047852
  endloop
 endfacet
facet normal 0.892485559 1.86192074e-06 0.451076001
  outer loop
   vertex -0.665808856 0.662864029 1.31455851
   vertex -0.66678375 0.663020015 1.31648743
   vertex -0.660125911 0.0370019898 1.30331707
  endloop
 endfacet
facet normal 0.894387126 0.000101151643 0.447293669
  outer loop
   vertex -0.660986602 0.0338799842 1.3050282
   vertex -0.660551071 0.0352884866 1.30415702
   vertex -0.667955577 0.662971973 1.31882071
  endloop
 endfacet
facet normal 0.892517388 0 0.451012999
  outer loop
   vertex -0.689006388 0.0290590804 1.36047852
   vertex -0.667955577 0.0279533844 1.31882071
   vertex -0.667955577 0.662971973 1.31882071
  endloop
 endfacet
facet normal 0.892230153 -2.44503663e-05 0.451580912
  outer loop
   vertex -0.660551071 0.0352884866 1.30415702
   vertex -0.660125911 0.0370019898 1.30331707
   vertex -0.667955577 0.662971973 1.31882071
  endloop
 endfacet
facet normal 0.893629849 6.18141203e-05 0.448804766
  outer loop
   vertex -0.66678375 0.663020015 1.31648743
   vertex -0.667955577 0.662971973 1.31882071
   vertex -0.660125911 0.0370019898 1.30331707
  endloop
 endfacet
facet normal 0.890519381 -9.57172015e-05 0.454945326
  outer loop
   vertex -0.66190958 0.0316740833 1.30685341
   vertex -0.661432624 0.0326898843 1.30592
   vertex -0.667955577 0.662971973 1.31882071
  endloop
 endfacet
endsolid MATLAB_1
