solid MATLAB_1
facet normal -0.980196834 0 0.198025614
  outer loop
   vertex 0.043273434 0.114000022 0.00720062666
   vertex 0.043273434 0.0910000205 0.00720062666
   vertex 0.0470093638 0.0910000205 0.0256929081
  endloop
 endfacet
facet normal -0.980196834 0 0.198025614
  outer loop
   vertex 0.0470093638 0.0910000205 0.0256929081
   vertex 0.0470093638 0.114000022 0.0256929081
   vertex 0.043273434 0.114000022 0.00720062666
  endloop
 endfacet
facet normal 0 1 0
  outer loop
   vertex 0.0790424198 0.114000022 0.0192361511
   vertex 0.043273434 0.114000022 0.00720062666
   vertex 0.0470093638 0.114000022 0.0256929081
  endloop
 endfacet
facet normal -0 1 0
  outer loop
   vertex 0.043273434 0.114000022 0.00720062666
   vertex 0.0790424198 0.114000022 0.0192361511
   vertex 0.0753064975 0.114000022 0.000742831151
  endloop
 endfacet
facet normal 0 1 0
  outer loop
   vertex 0.0753064975 0.114000022 0.000742831151
   vertex 0.0574329086 0.114000022 -0.00527493143
   vertex 0.043273434 0.114000022 0.00720062666
  endloop
 endfacet
facet normal -0 1 0
  outer loop
   vertex 0.0470093638 0.114000022 0.0256929081
   vertex 0.064882949 0.114000022 0.0317117088
   vertex 0.0790424198 0.114000022 0.0192361511
  endloop
 endfacet
facet normal -0.319134325 0 0.947709501
  outer loop
   vertex 0.064882949 0.0910000205 0.0317117088
   vertex 0.064882949 0.114000022 0.0317117088
   vertex 0.0470093638 0.114000022 0.0256929081
  endloop
 endfacet
facet normal -0.319134325 0 0.947709501
  outer loop
   vertex 0.0470093638 0.114000022 0.0256929081
   vertex 0.0470093638 0.0910000205 0.0256929081
   vertex 0.064882949 0.0910000205 0.0317117088
  endloop
 endfacet
facet normal 0.661082387 0 0.750313342
  outer loop
   vertex 0.0790424198 0.114000022 0.0192361511
   vertex 0.064882949 0.114000022 0.0317117088
   vertex 0.064882949 0.0910000205 0.0317117088
  endloop
 endfacet
facet normal 0.661082387 0 0.750313342
  outer loop
   vertex 0.064882949 0.0910000205 0.0317117088
   vertex 0.0790424198 0.0910000205 0.0192361511
   vertex 0.0790424198 0.114000022 0.0192361511
  endloop
 endfacet
facet normal 0.980198979 0 -0.19801493
  outer loop
   vertex 0.0753064975 0.114000022 0.000742831151
   vertex 0.0790424198 0.114000022 0.0192361511
   vertex 0.0790424198 0.0910000205 0.0192361511
  endloop
 endfacet
facet normal 0.980198979 0 -0.19801493
  outer loop
   vertex 0.0790424198 0.0910000205 0.0192361511
   vertex 0.0753064975 0.0910000205 0.000742831151
   vertex 0.0753064975 0.114000022 0.000742831151
  endloop
 endfacet
facet normal 0.319084853 0 -0.94772613
  outer loop
   vertex 0.0753064975 0.0910000205 0.000742831151
   vertex 0.0574329086 0.0910000205 -0.00527493143
   vertex 0.0574329086 0.114000022 -0.00527493143
  endloop
 endfacet
facet normal 0.319084853 0 -0.94772613
  outer loop
   vertex 0.0574329086 0.114000022 -0.00527493143
   vertex 0.0753064975 0.114000022 0.000742831151
   vertex 0.0753064975 0.0910000205 0.000742831151
  endloop
 endfacet
facet normal -0.661082387 0 -0.750313342
  outer loop
   vertex 0.043273434 0.0910000205 0.00720062666
   vertex 0.043273434 0.114000022 0.00720062666
   vertex 0.0574329086 0.114000022 -0.00527493143
  endloop
 endfacet
facet normal -0.661082387 -0 -0.750313342
  outer loop
   vertex 0.0574329086 0.114000022 -0.00527493143
   vertex 0.0574329086 0.0910000205 -0.00527493143
   vertex 0.043273434 0.0910000205 0.00720062666
  endloop
 endfacet
facet normal -0.115044296 0 0.993360341
  outer loop
   vertex 0.0389602296 0.114000022 -0.0367623307
   vertex 0.0202261843 0.114000022 -0.0389319845
   vertex 0.0202261843 0.0910000205 -0.0389319845
  endloop
 endfacet
facet normal -0.115044296 0 0.993360341
  outer loop
   vertex 0.0202261843 0.0910000205 -0.0389319845
   vertex 0.0389602296 0.0910000205 -0.0367623307
   vertex 0.0389602296 0.114000022 -0.0367623307
  endloop
 endfacet
facet normal -0 1 0
  outer loop
   vertex 0.0202261843 0.114000022 -0.0389319845
   vertex 0.0389602296 0.114000022 -0.0367623307
   vertex 0.0502116457 0.114000022 -0.0519074947
  endloop
 endfacet
facet normal 0 1 0
  outer loop
   vertex 0.0202261843 0.114000022 -0.0389319845
   vertex 0.0427179746 0.114000022 -0.0692212358
   vertex 0.0239839274 0.114000022 -0.0713909194
  endloop
 endfacet
facet normal 0 1 0
  outer loop
   vertex 0.0239839274 0.114000022 -0.0713909194
   vertex 0.0127326436 0.114000022 -0.0562457256
   vertex 0.0202261843 0.114000022 -0.0389319845
  endloop
 endfacet
facet normal 0 1 0
  outer loop
   vertex 0.0502116457 0.114000022 -0.0519074947
   vertex 0.0427179746 0.114000022 -0.0692212358
   vertex 0.0202261843 0.114000022 -0.0389319845
  endloop
 endfacet
facet normal 0.802725613 0 0.596348584
  outer loop
   vertex 0.0389602296 0.0910000205 -0.0367623307
   vertex 0.0502116457 0.0910000205 -0.0519074947
   vertex 0.0502116457 0.114000022 -0.0519074947
  endloop
 endfacet
facet normal 0.802725613 0 0.596348584
  outer loop
   vertex 0.0502116457 0.114000022 -0.0519074947
   vertex 0.0389602296 0.114000022 -0.0367623307
   vertex 0.0389602296 0.0910000205 -0.0367623307
  endloop
 endfacet
facet normal 0.917728662 0 -0.397207946
  outer loop
   vertex 0.0427179746 0.114000022 -0.0692212358
   vertex 0.0502116457 0.114000022 -0.0519074947
   vertex 0.0502116457 0.0910000205 -0.0519074947
  endloop
 endfacet
facet normal 0.917728662 0 -0.397207946
  outer loop
   vertex 0.0502116457 0.0910000205 -0.0519074947
   vertex 0.0427179746 0.0910000205 -0.0692212358
   vertex 0.0427179746 0.114000022 -0.0692212358
  endloop
 endfacet
facet normal 0.115045995 0 -0.993360162
  outer loop
   vertex 0.0427179746 0.0910000205 -0.0692212358
   vertex 0.0239839274 0.0910000205 -0.0713909194
   vertex 0.0239839274 0.114000022 -0.0713909194
  endloop
 endfacet
facet normal 0.115045995 0 -0.993360162
  outer loop
   vertex 0.0239839274 0.114000022 -0.0713909194
   vertex 0.0427179746 0.114000022 -0.0692212358
   vertex 0.0427179746 0.0910000205 -0.0692212358
  endloop
 endfacet
facet normal -0.802729487 0 -0.596343338
  outer loop
   vertex 0.0127326436 0.0910000205 -0.0562457256
   vertex 0.0127326436 0.114000022 -0.0562457256
   vertex 0.0239839274 0.114000022 -0.0713909194
  endloop
 endfacet
facet normal -0.802729487 -0 -0.596343338
  outer loop
   vertex 0.0239839274 0.114000022 -0.0713909194
   vertex 0.0239839274 0.0910000205 -0.0713909194
   vertex 0.0127326436 0.0910000205 -0.0562457256
  endloop
 endfacet
facet normal -0.917731166 0 0.397202134
  outer loop
   vertex 0.0202261843 0.114000022 -0.0389319845
   vertex 0.0127326436 0.114000022 -0.0562457256
   vertex 0.0127326436 0.0910000205 -0.0562457256
  endloop
 endfacet
facet normal -0.917731166 0 0.397202134
  outer loop
   vertex 0.0127326436 0.0910000205 -0.0562457256
   vertex 0.0202261843 0.0910000205 -0.0389319845
   vertex 0.0202261843 0.114000022 -0.0389319845
  endloop
 endfacet
facet normal 0.909016728 0 0.41675961
  outer loop
   vertex -0.0307804793 0.114000022 -0.0312608182
   vertex -0.0307804793 0.0910000205 -0.0312608182
   vertex -0.0229164995 0.0910000205 -0.0484133624
  endloop
 endfacet
facet normal 0.909016728 -0 0.41675961
  outer loop
   vertex -0.0229164995 0.0910000205 -0.0484133624
   vertex -0.0229164995 0.114000022 -0.0484133624
   vertex -0.0307804793 0.114000022 -0.0312608182
  endloop
 endfacet
facet normal 0 1 0
  outer loop
   vertex -0.0495581515 0.114000022 -0.0294865351
   vertex -0.0338520072 0.114000022 -0.0637916252
   vertex -0.0526296832 0.114000022 -0.0620162711
  endloop
 endfacet
facet normal 0 1 -0
  outer loop
   vertex -0.0338520072 0.114000022 -0.0637916252
   vertex -0.0495581515 0.114000022 -0.0294865351
   vertex -0.0307804793 0.114000022 -0.0312608182
  endloop
 endfacet
facet normal 0 1 0
  outer loop
   vertex -0.0307804793 0.114000022 -0.0312608182
   vertex -0.0229164995 0.114000022 -0.0484133624
   vertex -0.0338520072 0.114000022 -0.0637916252
  endloop
 endfacet
facet normal 0 1 -0
  outer loop
   vertex -0.0526296832 0.114000022 -0.0620162711
   vertex -0.0604827516 0.114000022 -0.0448636934
   vertex -0.0495581515 0.114000022 -0.0294865351
  endloop
 endfacet
facet normal 0.81495893 0 -0.579518735
  outer loop
   vertex -0.0338520072 0.114000022 -0.0637916252
   vertex -0.0229164995 0.114000022 -0.0484133624
   vertex -0.0229164995 0.0910000205 -0.0484133624
  endloop
 endfacet
facet normal 0.81495893 0 -0.579518735
  outer loop
   vertex -0.0229164995 0.0910000205 -0.0484133624
   vertex -0.0338520072 0.0910000205 -0.0637916252
   vertex -0.0338520072 0.114000022 -0.0637916252
  endloop
 endfacet
facet normal -0.0941262916 0 -0.995560288
  outer loop
   vertex -0.0526296832 0.114000022 -0.0620162711
   vertex -0.0338520072 0.114000022 -0.0637916252
   vertex -0.0338520072 0.0910000205 -0.0637916252
  endloop
 endfacet
facet normal -0.0941262916 0 -0.995560288
  outer loop
   vertex -0.0338520072 0.0910000205 -0.0637916252
   vertex -0.0526296832 0.0910000205 -0.0620162711
   vertex -0.0526296832 0.114000022 -0.0620162711
  endloop
 endfacet
facet normal -0.909235954 0 -0.416281164
  outer loop
   vertex -0.0604827516 0.114000022 -0.0448636934
   vertex -0.0526296832 0.114000022 -0.0620162711
   vertex -0.0526296832 0.0910000205 -0.0620162711
  endloop
 endfacet
facet normal -0.909235954 0 -0.416281164
  outer loop
   vertex -0.0526296832 0.0910000205 -0.0620162711
   vertex -0.0604827516 0.0910000205 -0.0448636934
   vertex -0.0604827516 0.114000022 -0.0448636934
  endloop
 endfacet
facet normal -0.815212309 0 0.57916224
  outer loop
   vertex -0.0604827516 0.0910000205 -0.0448636934
   vertex -0.0495581515 0.0910000205 -0.0294865351
   vertex -0.0495581515 0.114000022 -0.0294865351
  endloop
 endfacet
facet normal -0.815212309 0 0.57916224
  outer loop
   vertex -0.0495581515 0.114000022 -0.0294865351
   vertex -0.0604827516 0.114000022 -0.0448636934
   vertex -0.0604827516 0.0910000205 -0.0448636934
  endloop
 endfacet
facet normal 0.0940700024 0 0.995565593
  outer loop
   vertex -0.0495581515 0.114000022 -0.0294865351
   vertex -0.0495581515 0.0910000205 -0.0294865351
   vertex -0.0307804793 0.0910000205 -0.0312608182
  endloop
 endfacet
facet normal 0.0940700024 -0 0.995565593
  outer loop
   vertex -0.0307804793 0.0910000205 -0.0312608182
   vertex -0.0307804793 0.114000022 -0.0312608182
   vertex -0.0495581515 0.114000022 -0.0294865351
  endloop
 endfacet
facet normal 0.677187681 0 -0.735810339
  outer loop
   vertex -0.0392435454 0.114000022 0.0196130164
   vertex -0.0392435454 0.0910000205 0.0196130164
   vertex -0.0531198345 0.0910000205 0.00684226397
  endloop
 endfacet
facet normal 0.677187681 0 -0.735810339
  outer loop
   vertex -0.0531198345 0.0910000205 0.00684226397
   vertex -0.0531198345 0.114000022 0.00684226397
   vertex -0.0392435454 0.114000022 0.0196130164
  endloop
 endfacet
facet normal 0 1 0
  outer loop
   vertex -0.0752411857 0.114000022 0.0308937728
   vertex -0.0613539889 0.114000022 0.0436645262
   vertex -0.0433497801 0.114000022 0.0380235612
  endloop
 endfacet
facet normal 0 1 0
  outer loop
   vertex -0.0752411857 0.114000022 0.0308937728
   vertex -0.0392435454 0.114000022 0.0196130164
   vertex -0.0531198345 0.114000022 0.00684226397
  endloop
 endfacet
facet normal 0 1 0
  outer loop
   vertex -0.0531198345 0.114000022 0.00684226397
   vertex -0.0711240396 0.114000022 0.0124831619
   vertex -0.0752411857 0.114000022 0.0308937728
  endloop
 endfacet
facet normal 0 1 0
  outer loop
   vertex -0.0433497801 0.114000022 0.0380235612
   vertex -0.0392435454 0.114000022 0.0196130164
   vertex -0.0752411857 0.114000022 0.0308937728
  endloop
 endfacet
facet normal -0.298979074 0 -0.954259694
  outer loop
   vertex -0.0711240396 0.114000022 0.0124831619
   vertex -0.0531198345 0.114000022 0.00684226397
   vertex -0.0531198345 0.0910000205 0.00684226397
  endloop
 endfacet
facet normal -0.298979074 0 -0.954259694
  outer loop
   vertex -0.0531198345 0.0910000205 0.00684226397
   vertex -0.0711240396 0.0910000205 0.0124831619
   vertex -0.0711240396 0.114000022 0.0124831619
  endloop
 endfacet
facet normal -0.975895524 0 -0.218238354
  outer loop
   vertex -0.0752411857 0.114000022 0.0308937728
   vertex -0.0711240396 0.114000022 0.0124831619
   vertex -0.0711240396 0.0910000205 0.0124831619
  endloop
 endfacet
facet normal -0.975895524 0 -0.218238354
  outer loop
   vertex -0.0711240396 0.0910000205 0.0124831619
   vertex -0.0752411857 0.0910000205 0.0308937728
   vertex -0.0752411857 0.114000022 0.0308937728
  endloop
 endfacet
facet normal -0.676899612 0 0.736075342
  outer loop
   vertex -0.0613539889 0.114000022 0.0436645262
   vertex -0.0752411857 0.114000022 0.0308937728
   vertex -0.0752411857 0.0910000205 0.0308937728
  endloop
 endfacet
facet normal -0.676899612 0 0.736075342
  outer loop
   vertex -0.0752411857 0.0910000205 0.0308937728
   vertex -0.0613539889 0.0910000205 0.0436645262
   vertex -0.0613539889 0.114000022 0.0436645262
  endloop
 endfacet
facet normal 0.298982203 -0 0.95425868
  outer loop
   vertex -0.0433497801 0.0910000205 0.0380235612
   vertex -0.0433497801 0.114000022 0.0380235612
   vertex -0.0613539889 0.114000022 0.0436645262
  endloop
 endfacet
facet normal 0.298982203 0 0.95425868
  outer loop
   vertex -0.0613539889 0.114000022 0.0436645262
   vertex -0.0613539889 0.0910000205 0.0436645262
   vertex -0.0433497801 0.0910000205 0.0380235612
  endloop
 endfacet
facet normal 0.97601831 0 0.217688382
  outer loop
   vertex -0.0392435454 0.114000022 0.0196130164
   vertex -0.0433497801 0.114000022 0.0380235612
   vertex -0.0433497801 0.0910000205 0.0380235612
  endloop
 endfacet
facet normal 0.97601831 0 0.217688382
  outer loop
   vertex -0.0433497801 0.0910000205 0.0380235612
   vertex -0.0392435454 0.0910000205 0.0196130164
   vertex -0.0392435454 0.114000022 0.0196130164
  endloop
 endfacet
facet normal -0.490870237 0 -0.871232688
  outer loop
   vertex -0.00991157815 0.114000022 0.0526426733
   vertex 0.00652427413 0.114000022 0.0433823802
   vertex 0.00652427413 0.0910000205 0.0433823802
  endloop
 endfacet
facet normal -0.490870237 0 -0.871232688
  outer loop
   vertex 0.00652427413 0.0910000205 0.0433823802
   vertex -0.00991157815 0.0910000205 0.0526426733
   vertex -0.00991157815 0.114000022 0.0526426733
  endloop
 endfacet
facet normal 0 1 0
  outer loop
   vertex 0.00613215286 0.114000022 0.0811108053
   vertex 0.0225680061 0.114000022 0.0718505085
   vertex 0.0227640662 0.114000022 0.0529868826
  endloop
 endfacet
facet normal 0 1 0
  outer loop
   vertex 0.00652427413 0.114000022 0.0433823802
   vertex -0.00991157815 0.114000022 0.0526426733
   vertex -0.0101076392 0.114000022 0.0715074688
  endloop
 endfacet
facet normal -0 1 0
  outer loop
   vertex -0.0101076392 0.114000022 0.0715074688
   vertex 0.00613215286 0.114000022 0.0811108053
   vertex 0.00652427413 0.114000022 0.0433823802
  endloop
 endfacet
facet normal 0 1 0
  outer loop
   vertex 0.0227640662 0.114000022 0.0529868826
   vertex 0.00652427413 0.114000022 0.0433823802
   vertex 0.00613215286 0.114000022 0.0811108053
  endloop
 endfacet
facet normal -0.999945998 0 -0.0103923744
  outer loop
   vertex -0.0101076392 0.114000022 0.0715074688
   vertex -0.00991157815 0.114000022 0.0526426733
   vertex -0.00991157815 0.0910000205 0.0526426733
  endloop
 endfacet
facet normal -0.999945998 0 -0.0103923744
  outer loop
   vertex -0.00991157815 0.0910000205 0.0526426733
   vertex -0.0101076392 0.0910000205 0.0715074688
   vertex -0.0101076392 0.114000022 0.0715074688
  endloop
 endfacet
facet normal -0.50900799 0 0.860761821
  outer loop
   vertex 0.00613215286 0.114000022 0.0811108053
   vertex -0.0101076392 0.114000022 0.0715074688
   vertex -0.0101076392 0.0910000205 0.0715074688
  endloop
 endfacet
facet normal -0.50900799 0 0.860761821
  outer loop
   vertex -0.0101076392 0.0910000205 0.0715074688
   vertex 0.00613215286 0.0910000205 0.0811108053
   vertex 0.00613215286 0.114000022 0.0811108053
  endloop
 endfacet
facet normal 0.490870237 0 0.871232688
  outer loop
   vertex 0.0225680061 0.114000022 0.0718505085
   vertex 0.00613215286 0.114000022 0.0811108053
   vertex 0.00613215286 0.0910000205 0.0811108053
  endloop
 endfacet
facet normal 0.490870237 0 0.871232688
  outer loop
   vertex 0.00613215286 0.0910000205 0.0811108053
   vertex 0.0225680061 0.0910000205 0.0718505085
   vertex 0.0225680061 0.114000022 0.0718505085
  endloop
 endfacet
facet normal 0.999945998 0 0.0103930179
  outer loop
   vertex 0.0227640662 0.114000022 0.0529868826
   vertex 0.0225680061 0.114000022 0.0718505085
   vertex 0.0225680061 0.0910000205 0.0718505085
  endloop
 endfacet
facet normal 0.999945998 0 0.0103930179
  outer loop
   vertex 0.0225680061 0.0910000205 0.0718505085
   vertex 0.0227640662 0.0910000205 0.0529868826
   vertex 0.0227640662 0.114000022 0.0529868826
  endloop
 endfacet
facet normal 0.509053886 0 -0.860734642
  outer loop
   vertex 0.00652427413 0.114000022 0.0433823802
   vertex 0.0227640662 0.114000022 0.0529868826
   vertex 0.0227640662 0.0910000205 0.0529868826
  endloop
 endfacet
facet normal 0.509053886 0 -0.860734642
  outer loop
   vertex 0.0227640662 0.0910000205 0.0529868826
   vertex 0.00652427413 0.0910000205 0.0433823802
   vertex 0.00652427413 0.114000022 0.0433823802
  endloop
 endfacet
endsolid MATLAB_1
